<?xml version="1.0" encoding="UTF-8"?>
<svg width="960" height="600" viewBox="0 0 960 600" xmlns="http://www.w3.org/2000/svg" role="img" aria-labelledby="title desc">
  <title id="title">Markly dark theme mock screenshot</title>
  <desc id="desc">Illustration of the Markly application in dark mode showing sidebar, editor, and preview pane.</desc>
  <defs>
    <linearGradient id="sidebarGradientDark" x1="0" x2="0" y1="0" y2="1">
      <stop offset="0%" stop-color="#2c2f3a" />
      <stop offset="100%" stop-color="#242733" />
    </linearGradient>
    <linearGradient id="contentGradientDark" x1="0" x2="0" y1="0" y2="1">
      <stop offset="0%" stop-color="#1f222c" />
      <stop offset="100%" stop-color="#161822" />
    </linearGradient>
  </defs>
  <rect width="960" height="600" rx="32" fill="#151722" stroke="#414659" stroke-width="3" />
  <rect x="40" y="48" width="880" height="504" rx="24" fill="#1b1e29" stroke="#3b4155" stroke-width="2" />
  <rect x="64" y="76" width="220" height="456" rx="20" fill="url(#sidebarGradientDark)" stroke="#34394a" stroke-width="1.5" />
  <rect x="308" y="76" width="276" height="456" rx="20" fill="url(#contentGradientDark)" stroke="#34394a" stroke-width="1.5" />
  <rect x="612" y="76" width="276" height="456" rx="20" fill="#1c1f2a" stroke="#34394a" stroke-width="1.5" />
  <rect x="308" y="76" width="276" height="56" rx="18" fill="#242837" />
  <rect x="612" y="76" width="276" height="56" rx="18" fill="#242837" />
  <rect x="84" y="104" width="180" height="36" rx="12" fill="#1f2230" stroke="#3f4459" stroke-width="1" />
  <rect x="84" y="160" width="180" height="36" rx="12" fill="#1f2230" stroke="#3f4459" stroke-width="1" />
  <rect x="84" y="216" width="180" height="36" rx="12" fill="#1f2230" stroke="#3f4459" stroke-width="1" />
  <rect x="84" y="272" width="180" height="36" rx="12" fill="#1f2230" stroke="#3f4459" stroke-width="1" />
  <rect x="84" y="328" width="180" height="36" rx="12" fill="#1f2230" stroke="#3f4459" stroke-width="1" />
  <rect x="84" y="384" width="180" height="36" rx="12" fill="#1f2230" stroke="#3f4459" stroke-width="1" />
  <rect x="84" y="440" width="180" height="36" rx="12" fill="#1f2230" stroke="#3f4459" stroke-width="1" />
  <rect x="84" y="496" width="180" height="36" rx="12" fill="#1f2230" stroke="#3f4459" stroke-width="1" />
  <rect x="332" y="152" width="228" height="12" rx="6" fill="#6570a1" />
  <rect x="332" y="176" width="204" height="8" rx="4" fill="#3a3f55" />
  <rect x="332" y="196" width="188" height="8" rx="4" fill="#3a3f55" />
  <rect x="332" y="216" width="212" height="8" rx="4" fill="#3a3f55" />
  <rect x="332" y="236" width="198" height="8" rx="4" fill="#3a3f55" />
  <rect x="332" y="256" width="146" height="8" rx="4" fill="#3a3f55" />
  <rect x="636" y="152" width="228" height="12" rx="6" fill="#6570a1" />
  <rect x="636" y="176" width="204" height="8" rx="4" fill="#343954" />
  <rect x="636" y="196" width="188" height="8" rx="4" fill="#343954" />
  <rect x="636" y="216" width="212" height="8" rx="4" fill="#343954" />
  <rect x="636" y="236" width="198" height="8" rx="4" fill="#343954" />
  <rect x="636" y="256" width="166" height="8" rx="4" fill="#343954" />
  <rect x="636" y="276" width="128" height="8" rx="4" fill="#343954" />
  <circle cx="136" cy="120" r="6" fill="#7c87c0" />
  <circle cx="156" cy="120" r="6" fill="#7c87c0" />
  <circle cx="176" cy="120" r="6" fill="#7c87c0" />
  <rect x="84" y="72" width="132" height="16" rx="8" fill="#3f4660" />
  <rect x="724" y="96" width="120" height="24" rx="12" fill="#1f2230" stroke="#3f4459" />
  <text x="88" y="88" font-family="'Segoe UI', 'Helvetica Neue', Arial, sans-serif" font-size="14" fill="#9ca7de" font-weight="600">MARKLY</text>
  <text x="332" y="118" font-family="'Segoe UI', 'Helvetica Neue', Arial, sans-serif" font-size="16" fill="#c7cff8" font-weight="600">Weekly planning doc.md</text>
  <text x="636" y="118" font-family="'Segoe UI', 'Helvetica Neue', Arial, sans-serif" font-size="16" fill="#c7cff8" font-weight="600">Live preview</text>
  <text x="724" y="112" font-family="'Segoe UI', 'Helvetica Neue', Arial, sans-serif" font-size="12" fill="#96a0d8">Public</text>
</svg>
